<svg width="25" height="25" viewBox="0 0 300 300" fill="none" xmlns="http://www.w3.org/2000/svg">
<path d="M275 202.375C275 247.875 247.875 275 202.375 275H187.5C180.625 275 175 269.375 175 262.5V190.375C175 187 177.75 184.125 181.125 184.125L203.125 183.75C204.875 183.625 206.375 182.375 206.75 180.625L211.125 156.75C211.5 154.5 209.75 152.375 207.375 152.375L180.75 152.75C177.25 152.75 174.5 150 174.375 146.625L173.875 116C173.875 114 175.5 112.25 177.625 112.25L207.625 111.75C209.75 111.75 211.375 110.125 211.375 108L210.875 77.9999C210.875 75.8749 209.25 74.25 207.125 74.25L173.375 74.7501C152.625 75.1251 136.125 92.125 136.5 112.875L137.125 147.25C137.25 150.75 134.5 153.5 131 153.625L116 153.875C113.875 153.875 112.25 155.5 112.25 157.625L112.625 181.375C112.625 183.5 114.25 185.125 116.375 185.125L131.375 184.875C134.875 184.875 137.625 187.625 137.75 191L138.875 262.25C139 269.25 133.375 275 126.375 275H97.625C52.125 275 25 247.875 25 202.25V97.625C25 52.125 52.125 25 97.625 25H202.375C247.875 25 275 52.125 275 97.625V202.375V202.375Z" fill="#333333"/>
</svg>
