<svg width="24" height="25" viewBox="0 0 300 300" fill="none" xmlns="http://www.w3.org/2000/svg">
<path d="M202.375 25H97.625C52.125 25 25 52.125 25 97.625V202.25C25 247.875 52.125 275 97.625 275H202.25C247.75 275 274.875 247.875 274.875 202.375V97.625C275 52.125 247.875 25 202.375 25ZM150 198.5C123.25 198.5 101.5 176.75 101.5 150C101.5 123.25 123.25 101.5 150 101.5C176.75 101.5 198.5 123.25 198.5 150C198.5 176.75 176.75 198.5 150 198.5ZM224 86C223.375 87.5 222.5 88.875 221.375 90.125C220.125 91.25 218.75 92.125 217.25 92.75C215.75 93.375 214.125 93.75 212.5 93.75C209.125 93.75 206 92.5 203.625 90.125C202.5 88.875 201.625 87.5 201 86C200.375 84.5 200 82.875 200 81.25C200 79.625 200.375 78 201 76.5C201.625 74.875 202.5 73.625 203.625 72.375C206.5 69.5 210.875 68.125 214.875 69C215.75 69.125 216.5 69.375 217.25 69.75C218 70 218.75 70.375 219.5 70.875C220.125 71.25 220.75 71.875 221.375 72.375C222.5 73.625 223.375 74.875 224 76.5C224.625 78 225 79.625 225 81.25C225 82.875 224.625 84.5 224 86Z" fill="#333333"/>
</svg>
