<svg width="24" height="25" viewBox="0 0 24 25" fill="none" xmlns="http://www.w3.org/2000/svg">
<path d="M8.66965 12.206C9.44762 13.7965 10.7369 15.0799 12.3309 15.8507C12.4475 15.9059 12.5765 15.9299 12.7052 15.9201C12.8339 15.9104 12.9579 15.8673 13.0648 15.7951L15.4119 14.23C15.5157 14.1608 15.6352 14.1186 15.7594 14.1072C15.8837 14.0958 16.0088 14.1155 16.1235 14.1647L20.5144 16.0465C20.6636 16.1099 20.7881 16.22 20.8693 16.3603C20.9504 16.5006 20.9838 16.6634 20.9643 16.8243C20.8255 17.9103 20.2956 18.9085 19.4739 19.632C18.6521 20.3554 17.5948 20.7546 16.5 20.7546C13.1185 20.7546 9.87548 19.4113 7.48439 17.0202C5.0933 14.6291 3.75 11.3861 3.75 8.00461C3.75006 6.90977 4.14918 5.85249 4.87264 5.03074C5.5961 4.20899 6.59428 3.67911 7.68028 3.54033C7.84117 3.52086 8.00403 3.5542 8.14432 3.63534C8.28461 3.71647 8.39473 3.841 8.4581 3.99016L10.3416 8.38496C10.3903 8.49864 10.4101 8.6226 10.3994 8.7458C10.3886 8.869 10.3475 8.98763 10.2798 9.09111L8.72011 11.4742C8.64912 11.5814 8.60716 11.7052 8.59831 11.8335C8.58947 11.9617 8.61405 12.0901 8.66965 12.206V12.206Z" stroke="#333333" stroke-width="1.5" stroke-linecap="round" stroke-linejoin="round"/>
</svg>
