<svg width="60" height="60" viewBox="0 0 60 60" fill="none" xmlns="http://www.w3.org/2000/svg">
<path d="M25.3125 33.75H9.375C8.87772 33.75 8.40081 33.5525 8.04918 33.2008C7.69754 32.8492 7.5 32.3723 7.5 31.875V16.875C7.5 16.3777 7.69754 15.9008 8.04918 15.5492C8.40081 15.1975 8.87772 15 9.375 15H23.4375C23.9348 15 24.4117 15.1975 24.7633 15.5492C25.115 15.9008 25.3125 16.3777 25.3125 16.875V37.5C25.3125 39.9864 24.3248 42.371 22.5666 44.1291C20.8085 45.8873 18.4239 46.875 15.9375 46.875" stroke="#195A00" stroke-width="1.5" stroke-linecap="round" stroke-linejoin="round"/>
<path d="M52.5 33.75H36.5625C36.0652 33.75 35.5883 33.5525 35.2367 33.2008C34.885 32.8492 34.6875 32.3723 34.6875 31.875V16.875C34.6875 16.3777 34.885 15.9008 35.2367 15.5492C35.5883 15.1975 36.0652 15 36.5625 15H50.625C51.1223 15 51.5992 15.1975 51.9508 15.5492C52.3025 15.9008 52.5 16.3777 52.5 16.875V37.5C52.5 39.9864 51.5123 42.371 49.7541 44.1291C47.996 45.8873 45.6114 46.875 43.125 46.875" stroke="#195A00" stroke-width="1.5" stroke-linecap="round" stroke-linejoin="round"/>
</svg>
