<svg width="19" height="19" viewBox="0 0 19 19" fill="none" xmlns="http://www.w3.org/2000/svg">
<path d="M16.4533 2.54719C16.3732 2.46743 16.2719 2.41221 16.1615 2.38802C16.0511 2.36383 15.936 2.37167 15.8299 2.41063L2.76736 7.16062C2.65471 7.20335 2.55772 7.27934 2.48928 7.3785C2.42084 7.47766 2.38419 7.5953 2.38419 7.71578C2.38419 7.83627 2.42084 7.9539 2.48928 8.05306C2.55772 8.15222 2.65471 8.22821 2.76736 8.27094L7.86768 10.3075L11.6321 6.53125L12.4692 7.36844L8.68705 11.1506L10.7296 16.2509C10.7736 16.3614 10.8497 16.4561 10.9482 16.5228C11.0466 16.5895 11.1628 16.6251 11.2817 16.625C11.4017 16.6225 11.5182 16.5838 11.6157 16.5138C11.7132 16.4439 11.7872 16.346 11.828 16.2331L16.578 3.17063C16.6184 3.06558 16.6282 2.95119 16.6061 2.84081C16.584 2.73043 16.531 2.6286 16.4533 2.54719Z" fill="white"/>
</svg>
