<svg width="116" height="20" viewBox="0 0 116 20" fill="none" xmlns="http://www.w3.org/2000/svg">
<path d="M10.3438 14.8985L14.2812 17.3985C14.7891 17.7188 15.4141 17.2422 15.2656 16.6563L14.125 12.1719C14.0942 12.0476 14.0991 11.9171 14.1391 11.7955C14.1792 11.6738 14.2529 11.566 14.3516 11.4844L17.8828 8.53908C18.3438 8.15627 18.1094 7.38283 17.5078 7.34377L12.8984 7.04689C12.7727 7.03958 12.6518 6.99578 12.5505 6.92086C12.4492 6.84594 12.3719 6.74314 12.3281 6.62502L10.6094 2.29689C10.5639 2.17182 10.481 2.06377 10.372 1.98742C10.263 1.91107 10.1331 1.87012 10 1.87012C9.86691 1.87012 9.73704 1.91107 9.62802 1.98742C9.519 2.06377 9.43612 2.17182 9.39062 2.29689L7.67188 6.62502C7.62807 6.74314 7.55081 6.84594 7.44952 6.92086C7.34824 6.99578 7.22733 7.03958 7.10156 7.04689L2.49219 7.34377C1.89063 7.38283 1.65625 8.15627 2.11719 8.53908L5.64844 11.4844C5.74714 11.566 5.82077 11.6738 5.86085 11.7955C5.90094 11.9171 5.90584 12.0476 5.875 12.1719L4.82031 16.3281C4.64063 17.0313 5.39063 17.6016 5.99219 17.2188L9.65625 14.8985C9.759 14.8331 9.87824 14.7984 10 14.7984C10.1218 14.7984 10.241 14.8331 10.3438 14.8985Z" fill="#195A00"/>
<path d="M34.3437 14.8985L38.2812 17.3985C38.7891 17.7188 39.4141 17.2422 39.2656 16.6563L38.125 12.1719C38.0942 12.0476 38.0991 11.9171 38.1391 11.7955C38.1792 11.6738 38.2529 11.566 38.3516 11.4844L41.8828 8.53908C42.3437 8.15627 42.1094 7.38283 41.5078 7.34377L36.8984 7.04689C36.7727 7.03958 36.6518 6.99578 36.5505 6.92086C36.4492 6.84594 36.3719 6.74314 36.3281 6.62502L34.6094 2.29689C34.5639 2.17182 34.481 2.06377 34.372 1.98742C34.263 1.91107 34.1331 1.87012 34 1.87012C33.8669 1.87012 33.737 1.91107 33.628 1.98742C33.519 2.06377 33.4361 2.17182 33.3906 2.29689L31.6719 6.62502C31.6281 6.74314 31.5508 6.84594 31.4495 6.92086C31.3482 6.99578 31.2273 7.03958 31.1016 7.04689L26.4922 7.34377C25.8906 7.38283 25.6562 8.15627 26.1172 8.53908L29.6484 11.4844C29.7471 11.566 29.8208 11.6738 29.8609 11.7955C29.9009 11.9171 29.9058 12.0476 29.875 12.1719L28.8203 16.3281C28.6406 17.0313 29.3906 17.6016 29.9922 17.2188L33.6562 14.8985C33.759 14.8331 33.8782 14.7984 34 14.7984C34.1218 14.7984 34.241 14.8331 34.3437 14.8985V14.8985Z" fill="#195A00"/>
<path d="M58.3437 14.8985L62.2813 17.3985C62.7891 17.7188 63.4141 17.2422 63.2656 16.6563L62.125 12.1719C62.0942 12.0476 62.0991 11.9171 62.1391 11.7955C62.1792 11.6738 62.2529 11.566 62.3516 11.4844L65.8828 8.53908C66.3437 8.15627 66.1094 7.38283 65.5078 7.34377L60.8984 7.04689C60.7727 7.03958 60.6518 6.99578 60.5505 6.92086C60.4492 6.84594 60.3719 6.74314 60.3281 6.62502L58.6094 2.29689C58.5639 2.17182 58.481 2.06377 58.372 1.98742C58.263 1.91107 58.1331 1.87012 58 1.87012C57.8669 1.87012 57.737 1.91107 57.628 1.98742C57.519 2.06377 57.4361 2.17182 57.3906 2.29689L55.6719 6.62502C55.6281 6.74314 55.5508 6.84594 55.4495 6.92086C55.3482 6.99578 55.2273 7.03958 55.1016 7.04689L50.4922 7.34377C49.8906 7.38283 49.6563 8.15627 50.1172 8.53908L53.6484 11.4844C53.7471 11.566 53.8208 11.6738 53.8609 11.7955C53.9009 11.9171 53.9058 12.0476 53.875 12.1719L52.8203 16.3281C52.6406 17.0313 53.3906 17.6016 53.9922 17.2188L57.6563 14.8985C57.759 14.8331 57.8782 14.7984 58 14.7984C58.1218 14.7984 58.241 14.8331 58.3437 14.8985V14.8985Z" fill="#195A00"/>
<path d="M82.3437 14.8985L86.2813 17.3985C86.7891 17.7188 87.4141 17.2422 87.2656 16.6563L86.125 12.1719C86.0942 12.0476 86.0991 11.9171 86.1391 11.7955C86.1792 11.6738 86.2529 11.566 86.3516 11.4844L89.8828 8.53908C90.3437 8.15627 90.1094 7.38283 89.5078 7.34377L84.8984 7.04689C84.7727 7.03958 84.6518 6.99578 84.5505 6.92086C84.4492 6.84594 84.3719 6.74314 84.3281 6.62502L82.6094 2.29689C82.5639 2.17182 82.481 2.06377 82.372 1.98742C82.263 1.91107 82.1331 1.87012 82 1.87012C81.8669 1.87012 81.737 1.91107 81.628 1.98742C81.519 2.06377 81.4361 2.17182 81.3906 2.29689L79.6719 6.62502C79.6281 6.74314 79.5508 6.84594 79.4495 6.92086C79.3482 6.99578 79.2273 7.03958 79.1016 7.04689L74.4922 7.34377C73.8906 7.38283 73.6563 8.15627 74.1172 8.53908L77.6484 11.4844C77.7471 11.566 77.8208 11.6738 77.8609 11.7955C77.9009 11.9171 77.9058 12.0476 77.875 12.1719L76.8203 16.3281C76.6406 17.0313 77.3906 17.6016 77.9922 17.2188L81.6563 14.8985C81.759 14.8331 81.8782 14.7984 82 14.7984C82.1218 14.7984 82.241 14.8331 82.3437 14.8985V14.8985Z" fill="#195A00"/>
<path d="M106.344 14.8985L110.281 17.3985C110.789 17.7188 111.414 17.2422 111.266 16.6563L110.125 12.1719C110.094 12.0476 110.099 11.9171 110.139 11.7955C110.179 11.6738 110.253 11.566 110.352 11.4844L113.883 8.53908C114.344 8.15627 114.109 7.38283 113.508 7.34377L108.898 7.04689C108.773 7.03958 108.652 6.99578 108.55 6.92086C108.449 6.84594 108.372 6.74314 108.328 6.62502L106.609 2.29689C106.564 2.17182 106.481 2.06377 106.372 1.98742C106.263 1.91107 106.133 1.87012 106 1.87012C105.867 1.87012 105.737 1.91107 105.628 1.98742C105.519 2.06377 105.436 2.17182 105.391 2.29689L103.672 6.62502C103.628 6.74314 103.551 6.84594 103.45 6.92086C103.348 6.99578 103.227 7.03958 103.102 7.04689L98.4922 7.34377C97.8906 7.38283 97.6562 8.15627 98.1172 8.53908L101.648 11.4844C101.747 11.566 101.821 11.6738 101.861 11.7955C101.901 11.9171 101.906 12.0476 101.875 12.1719L100.82 16.3281C100.641 17.0313 101.391 17.6016 101.992 17.2188L105.656 14.8985C105.759 14.8331 105.878 14.7984 106 14.7984C106.122 14.7984 106.241 14.8331 106.344 14.8985V14.8985Z" fill="#195A00"/>
</svg>
