<svg width="24" height="25" viewBox="0 0 300 300" fill="none" xmlns="http://www.w3.org/2000/svg">
<path d="M274.752 142.63C270.502 70.1305 204.628 14.2556 128.753 26.7556C76.5026 35.3806 34.6277 77.7554 26.5027 130.005C21.7527 160.255 28.003 188.88 41.628 212.505L30.5028 253.88C28.0028 263.255 36.6275 271.755 45.8775 269.13L86.6277 257.88C105.128 268.755 126.753 275.005 149.878 275.005C220.378 275.005 278.877 212.88 274.752 142.63ZM211.003 196.505C209.878 198.755 208.502 200.881 206.752 202.881C203.627 206.256 200.252 208.756 196.502 210.256C192.752 211.881 188.628 212.631 184.253 212.631C177.878 212.631 171.003 211.131 163.878 208.006C156.628 204.881 149.503 200.755 142.378 195.63C135.128 190.38 128.378 184.505 121.878 178.13C115.378 171.63 109.627 164.755 104.377 157.63C99.2524 150.505 95.1277 143.38 92.1277 136.255C89.1277 129.13 87.6279 122.256 87.6279 115.756C87.6279 111.506 88.3778 107.381 89.8778 103.631C91.3778 99.7555 93.753 96.2556 97.128 93.1306C101.128 89.1306 105.503 87.2556 110.128 87.2556C111.878 87.2556 113.627 87.6305 115.252 88.3805C116.877 89.1305 118.378 90.2555 119.503 91.8805L134.002 112.38C135.127 114.005 136.003 115.38 136.503 116.755C137.128 118.13 137.378 119.38 137.378 120.63C137.378 122.13 136.878 123.631 136.003 125.131C135.128 126.631 134.002 128.13 132.502 129.63L127.752 134.63C127.002 135.38 126.753 136.13 126.753 137.13C126.753 137.63 126.877 138.13 127.002 138.63C127.252 139.13 127.378 139.505 127.503 139.88C128.628 142.005 130.628 144.63 133.378 147.88C136.253 151.13 139.253 154.505 142.503 157.755C145.878 161.13 149.128 164.13 152.503 167.005C155.753 169.755 158.502 171.631 160.627 172.756C161.002 172.881 161.378 173.13 161.753 173.255C162.253 173.505 162.753 173.506 163.378 173.506C164.503 173.506 165.253 173.131 166.003 172.381L170.752 167.63C172.377 166.005 173.878 164.881 175.253 164.131C176.753 163.256 178.128 162.755 179.753 162.755C181.003 162.755 182.253 163.005 183.628 163.63C185.003 164.255 186.502 165.006 188.002 166.131L208.753 180.88C210.378 182.005 211.502 183.381 212.252 184.881C212.877 186.506 213.253 188.005 213.253 189.755C212.503 191.88 212.003 194.255 211.003 196.505Z" fill="#333333"/>
</svg>
